<svg width="1400" height="382" viewBox="0 0 1400 382" fill="none" xmlns="http://www.w3.org/2000/svg">
<g clip-path="url(#clip0)">
<rect width="1400" height="500" transform="translate(0 -118)" fill="white"/>
<path opacity="0.1" d="M622.5 122.103C437.7 17.3032 52.5 12.1032 -38.5 83.1032L-69 450.103L1491 459.603V137.103C1385.5 -28.8968 1152.33 -0.896835 1085 46.6032C1007.83 115.436 807.3 226.903 622.5 122.103Z" fill="#C4C4C4"/>
<path opacity="0.2" d="M622.5 177.103C437.7 72.3032 52.5 67.1032 -38.5 138.103L-69 505.103L1491 514.603V192.103C1385.5 26.1032 1152.33 54.1032 1085 101.603C1007.83 170.436 807.3 281.903 622.5 177.103Z" fill="#C4C4C4"/>
<path opacity="0.2" d="M622.5 244.103C437.7 139.303 52.5 134.103 -38.5 205.103L-69 572.103L1491 581.603V259.103C1385.5 93.1032 1152.33 121.103 1085 168.603C1007.83 237.436 807.3 348.903 622.5 244.103Z" fill="#C4C4C4"/>
</g>
<defs>
<clipPath id="clip0">
<rect width="1400" height="500" fill="white" transform="translate(0 -118)"/>
</clipPath>
</defs>
</svg>
